<svg xmlns="http://www.w3.org/2000/svg" viewBox="372.33 69.00 481.67 562.33" fill="currentColor" role="img" aria-label="Dreamshade emblem"><title>Dreamshade emblem</title><path d="M 747.12 425.64 C 744.99 432.94 742.51 439.89 739.67 446.5 C 737.33 439.87 734.37 433.37 730.83 427.01 C 724.71 416 716.80 405.40 707.08 395.26 C 683.61 370.10 640.56 338.82 577.95 301.35 C 537.13 276.19 509.47 255.23 494.93 238.46 C 492.37 235.42 490.01 232.33 487.90 229.20 C 477.11 213.16 473.12 195.60 473.12 176.41 C 473.12 176.26 473.12 176.11 473.12 175.97 C 473.19 164.22 482.84 154.79 494.59 154.79 L 556.76 154.79 C 604.28 154.79 643.32 163.02 673.92 179.49 C 663.68 167.01 652.01 155.62 639.08 145.50 C 629.26 137.69 617.11 131.82 602.75 127.93 C 591.46 127.05 579.78 126.60 567.76 126.60 C 554.71 126.60 540.90 126.67 526.29 126.80 C 516.27 126.90 505.93 127.03 495.18 127.20 C 497.32 125.29 499.63 123.53 502.06 121.91 C 508.54 117.58 515.74 114.22 523.67 111.79 C 537.36 107.62 553.20 106.24 571.22 107.64 C 583.73 108.52 595.25 110.33 605.76 113.12 C 622.51 117.51 636.72 124.36 648.39 133.65 C 648.84 134.00 649.30 134.35 649.72 134.71 C 746.58 214.33 756.89 300.16 756.89 349.42 C 756.89 378.01 753.63 403.42 747.12 425.64 M 852.19 322.12 C 843.00 318.64 825.19 308.56 821.30 287.56 C 811.50 245.11 789.11 210.02 754.13 182.30 C 747.00 176.66 739.52 171.41 731.66 166.61 C 726.74 163.60 721.67 160.76 716.45 158.10 C 716.37 151.65 716.27 146.03 716.17 141.21 C 715.94 129.36 715.69 122.35 715.47 120.22 C 717.15 111.84 705.12 102.35 679.42 91.71 C 652.01 80.53 620.70 73.25 585.48 69.91 C 535.73 66.00 494.23 75.94 460.97 99.69 C 455.02 103.93 449.57 108.40 444.62 113.09 C 439.48 117.96 434.86 123.11 430.79 128.48 C 424.69 128.63 418.47 128.78 412.17 128.93 C 399.54 129.28 386.53 129.64 373.13 130.04 L 373.13 136.76 C 385.05 138.59 394.99 144.28 401 154.98 C 412.31 175.16 412.00 214 411.49 241.16 L 411.32 272.51 C 411.27 284.01 407.93 295.34 401.25 304.70 C 397.38 310.12 392.20 315.25 385.40 318.33 C 383.60 319.14 383.57 321.69 385.42 322.39 C 392.82 325.20 405.08 333.90 409.47 347.94 C 410.55 351.40 410.95 355.03 410.94 358.65 L 410.48 461.46 L 410.28 502.42 C 410.28 520.77 406.94 535.11 400.32 545.43 C 399.24 547.08 398.11 548.64 396.85 550.07 C 390.60 557.58 382.47 562.09 372.45 563.62 L 372.45 569.50 C 380.86 569.53 389 569.58 396.85 569.60 C 401.98 569.63 407 569.66 411.91 569.66 C 439.45 569.78 463.43 569.85 483.76 569.93 C 495.48 569.98 506.00 570.03 515.32 570.05 C 540.82 570.13 557.39 570.18 565.02 570.18 C 593.19 571.03 619.45 569.12 643.80 564.46 C 657.56 553.60 662.80 529.59 663.60 523.33 C 635.49 535.76 601.02 541.99 560.20 541.99 C 525.36 541.99 502.09 538.32 490.39 531 C 478.69 523.66 472.84 508.98 472.84 486.96 L 472.84 316.33 C 477.51 320 482.56 323.84 487.90 327.85 C 507.71 342.62 532.14 359.49 561.18 378.49 C 609.81 410.37 641.96 434.97 657.60 452.29 C 669.40 465.78 676.43 480.99 678.69 497.96 C 679.44 503.50 679.69 509.25 679.42 515.18 L 679.42 515.25 C 679.42 539.14 668.45 557.93 667.95 558.73 L 667.95 558.76 C 663.38 566.54 657.53 573.12 650.35 578.46 C 630.27 593.58 599.99 599.28 559.50 595.69 C 542.60 594.43 526.82 590.92 512.18 585.09 C 487.50 585.02 454.41 584.89 411.91 584.71 C 411.91 584.71 473.12 630.91 568.10 630.91 C 717.71 630.91 740.42 531.85 742.68 523.33 C 745.17 521.58 747.60 519.77 750.01 517.91 C 753.70 515.00 757.29 511.99 760.71 508.88 C 801.00 472.47 822.93 422.60 826.50 359.29 L 826.51 359.30 C 826.51 359.30 832.29 335.19 852.21 326.18 C 854.01 325.37 854.04 322.82 852.19 322.12 "/></svg>
